<svg width="48" height="48" viewBox="0 0 49 49" fill="none" xmlns="http://www.w3.org/2000/svg">
  <path d="M27.807 18.5h2.25v5.67l3.495 3.495-1.59 1.59-4.155-4.155v-6.6Z" fill="#7EB77F" />
  <path d="M9.807 33.5a1.5 1.5 0 1 1 0-3h5.745a15.396 15.396 0 0 0 1.755 3h-7.5Zm1.5-7.5a1.5 1.5 0 1 1 0-3h3.075l-.075 1.5.075 1.5h-3.075Zm1.5-7.5a1.5 1.5 0 1 1 0-3h4.5c-.69.93-1.29 1.935-1.755 3h-2.745Z" fill="#CED1D6" />
  <path d="M29.307 12.5a12 12 0 1 1 0 24 12 12 0 0 1 0-24Zm0 3a9 9 0 1 0 0 18 9 9 0 0 0 0-18Z" fill="#57ACDC" />
</svg>
